<svg xmlns="http://www.w3.org/2000/svg" xmlns:xlink="http://www.w3.org/1999/xlink" version="1.1" x="0px" y="0px" viewBox="0 0 100 125" enable-background="new 0 0 100 100" xml:space="preserve"><g><path d="M50,88.818c-22.017,0-39.929-16.965-39.929-37.817S27.983,13.184,50,13.184s39.929,16.964,39.929,37.817   S72.017,88.818,50,88.818z M50,16.184c-20.363,0-36.929,15.619-36.929,34.817S29.637,85.818,50,85.818   c20.362,0,36.929-15.619,36.929-34.817S70.362,16.184,50,16.184z"/></g><g><circle fill="#000000" cx="35.289" cy="47.294" r="12.457"/></g><g><circle fill="#000000" cx="65.131" cy="47.294" r="12.457"/></g><g><circle fill="#000000" cx="50" cy="62.706" r="2.956"/></g><g><path d="M16.287,12.682c5.416,0,9.815,4.311,9.979,9.688c-4.054,2.77-7.513,6.266-10.163,10.292   c-5.434-0.099-9.81-4.527-9.81-9.985C6.293,17.156,10.767,12.682,16.287,12.682z"/></g><g><path d="M83.713,12.682c-5.416,0-9.815,4.311-9.979,9.688c4.054,2.77,7.513,6.266,10.163,10.292c5.434-0.099,9.81-4.527,9.81-9.985   C93.707,17.156,89.233,12.682,83.713,12.682z"/></g><text x="0" y="115" fill="#000000" font-size="5px" font-weight="bold" font-family="'Helvetica Neue', Helvetica, Arial-Unicode, Arial, Sans-serif">Created by Elena Rimeikaite</text><text x="0" y="120" fill="#000000" font-size="5px" font-weight="bold" font-family="'Helvetica Neue', Helvetica, Arial-Unicode, Arial, Sans-serif">from the Noun Project</text></svg>