<svg xmlns="http://www.w3.org/2000/svg" xmlns:xlink="http://www.w3.org/1999/xlink" version="1.1" x="0px" y="0px" viewBox="0 0 96 120" enable-background="new 0 0 96 96" xml:space="preserve"><path d="M73.588,48.88c0,1.109-0.898,2.009-2.008,2.009s-2.008-0.899-2.008-2.009c0-1.109,0.898-2.008,2.008-2.008  S73.588,47.771,73.588,48.88z"/><path d="M91.428,65.684c-2.844-4.664-5.756-10.848-8.584-16.828c-4.636-9.819-9.012-19.096-13.691-23.768  c-1.772-1.764-4.168-3.184-6.984-4.164c1.557-7.068,1.137-15.516-2.736-19.384c-0.716-0.712-1.844-0.78-2.64-0.164  c-2.819,2.2-11.288,9.632-9.848,18.596c-6.52,1.184-12.572,4.324-17.232,8.976C22.788,35.864,0.16,60.928-0.016,93.036  c-0.004,0.532,0.208,1.052,0.584,1.416c0.376,0.384,0.888,0.588,1.416,0.588h36.312c0.548,0,1.072-0.224,1.448-0.62  c0.916-0.96,2.268-2.432,3.836-4.156c4.192-4.58,12-13.1,14.152-14.304c0.459-0.256,0.888-0.384,1.304-0.384  c2.052,0,4.552,2.988,7.196,6.152c1.315,1.584,2.703,3.231,4.207,4.76c1.696,1.712,6.849,6.924,12.893,6.924  c2.804,0,5.416-1.096,7.752-3.268C97.548,84.156,97.66,75.916,91.428,65.684L91.428,65.684z M71.58,42.872  c3.32,0,6.016,2.696,6.016,6.008c0,3.315-2.695,6.009-6.016,6.009s-6.016-2.693-6.016-6.009  C65.564,45.568,68.256,42.872,71.58,42.872z M40.636,87.58c-0.196,0.212-0.36,0.393-0.544,0.592  c-2.572-2.023-8.656-3.068-18.196-3.068c-2.38,0-4.392-1.684-6.524-3.463C12.82,79.508,10,77.152,6.04,77.1  c0.328-1.332,0.68-2.644,1.072-3.936c4.8,0.4,8.244,3.252,10.828,5.412c1.488,1.248,3.028,2.531,3.956,2.531  c6.948,0,16.472,0.477,20.888,4.137C42.076,86.008,41.364,86.78,40.636,87.58z M48.044,79.6  c-3.7-10.728-18.628-14.531-22.136-14.531c-2.836,0-5.172-2.336-7.436-4.588c-1.528-1.524-3.428-3.424-4.608-3.424  c-0.016,0-0.032-0.009-0.048-0.009c0.664-1.239,1.344-2.428,2.032-3.596c1.984,0.752,3.74,2.491,5.452,4.2  c1.528,1.527,3.428,3.42,4.608,3.42c4.22,0,19.812,3.764,25.184,15.428C50.152,77.428,49.141,78.46,48.044,79.6z M60.016,71.708  c-0.324-0.052-0.644-0.112-0.976-0.112c-0.892,0-1.756,0.248-2.616,0.62c-0.088-0.112-0.188-0.224-0.244-0.36  c-0.1-0.248-0.156-0.5-0.156-0.76c0-7.084-7.52-14.539-14.952-18.252c-5.672-2.828-7.812-7.5-9.536-11.252  c-0.96-2.104-1.792-3.916-3.032-5.152c-0.06-0.06-0.084-0.136-0.132-0.2c0.952-1.076,1.84-2.052,2.612-2.86  c0.116,0.08,0.244,0.128,0.344,0.228c1.752,1.752,2.768,3.972,3.844,6.316c1.608,3.508,3.276,7.136,7.684,9.336  c6.22,3.104,12.785,8.74,15.667,15.217c0.869-4.257,1.513-11.148,1.513-21.433c0-2.332,1.024-5.4,2.104-8.648  c0.939-2.804,1.911-5.704,1.911-7.384c0-0.252,0.06-0.484,0.144-0.704c0.797,0.492,1.533,1.024,2.133,1.62  c0.464,0.464,0.928,1.016,1.408,1.6c-0.389,1.856-1.064,3.94-1.797,6.132c-0.932,2.804-1.907,5.704-1.907,7.38  C64.04,58.428,62.672,68,60.016,71.708L60.016,71.708z M67.244,76.764c-0.916-1.039-1.836-2.008-2.784-2.812  c0.24-0.336,0.552-0.616,0.972-0.757c5.813-1.928,7.264-5.959,8.805-10.228c1.279-3.552,2.636-7.196,6.436-9.376  c0.584,1.236,1.172,2.444,1.76,3.664c-2.344,1.5-3.359,4.072-4.439,7.072C76.408,68.721,74.408,74.124,67.244,76.764z   M85.788,80.212c-2.009,3.004-4.084,6.108-6.22,8.252c-1.217-0.575-2.344-1.319-3.32-2.092c0.092-0.244,0.244-0.472,0.436-0.668  c1.868-1.864,3.853-4.836,5.772-7.716c2.024-3.032,4.12-6.172,6.265-8.32c0.079-0.076,0.176-0.107,0.256-0.172  c0.752,1.396,1.344,2.68,1.783,3.884C89.145,75.229,87.443,77.732,85.788,80.212z"/><text x="0" y="111" fill="#000000" font-size="5px" font-weight="bold" font-family="'Helvetica Neue', Helvetica, Arial-Unicode, Arial, Sans-serif">Created by iconsmind.com</text><text x="0" y="116" fill="#000000" font-size="5px" font-weight="bold" font-family="'Helvetica Neue', Helvetica, Arial-Unicode, Arial, Sans-serif">from the Noun Project</text></svg>