<?xml version="1.0" encoding="UTF-8"?>
<svg width="22px" height="22px" viewBox="0 0 22 22" version="1.1" xmlns="http://www.w3.org/2000/svg" xmlns:xlink="http://www.w3.org/1999/xlink">
    <!-- Generator: Sketch 46.2 (44496) - http://www.bohemiancoding.com/sketch -->
    <title>Combined Shape</title>
    <desc>Created with Sketch.</desc>
    <defs></defs>
    <g id="Page-1" stroke="none" stroke-width="1" fill="none" fill-rule="evenodd">
        <g id="Desktop-HD-Copy-9" transform="translate(-340.000000, -528.000000)" fill="#ABB2B9">
            <g id="Group-8" transform="translate(53.000000, 477.000000)">
                <g id="Group-Copy-4" transform="translate(287.000000, 51.000000)">
                    <path d="M11,22 C4.92486775,22 0,17.0751322 0,11 C0,4.92486775 4.92486775,0 11,0 C17.0751322,0 22,4.92486775 22,11 C22,17.0751322 17.0751322,22 11,22 Z M8.54255522,14.792592 C8.15186459,15.1829499 8.15159484,15.8161148 8.54195273,16.2068055 C8.93231061,16.5974961 9.56547553,16.5977658 9.95616616,16.207408 L14.460002,11.707408 C14.8509281,11.3168149 14.8509281,10.6831851 14.460002,10.292592 L9.95616616,5.79259204 C9.56547553,5.40223415 8.93231061,5.4025039 8.54195273,5.79319453 C8.15159484,6.18388516 8.15186459,6.81705008 8.54255522,7.20740796 L12.3383801,11 L8.54255522,14.792592 Z" id="Combined-Shape"></path>
                </g>
            </g>
        </g>
    </g>
</svg>