<?xml version="1.0" encoding="UTF-8"?>
<svg width="34px" height="34px" viewBox="0 0 34 34" version="1.1" xmlns="http://www.w3.org/2000/svg" xmlns:xlink="http://www.w3.org/1999/xlink">
    <!-- Generator: Sketch 46.2 (44496) - http://www.bohemiancoding.com/sketch -->
    <title>rss-12bef3a7ea150b9ed029284c68f0fa6d</title>
    <desc>Created with Sketch.</desc>
    <defs>
        <linearGradient x1="49.9994174%" y1="0.0279286909%" x2="49.9994174%" y2="100.001484%" id="linearGradient-1">
            <stop stop-color="#969696" offset="0%"></stop>
            <stop stop-color="#565656" offset="100%"></stop>
        </linearGradient>
        <linearGradient x1="50%" y1="0%" x2="50%" y2="100%" id="linearGradient-2">
            <stop stop-color="#50C54C" offset="0%"></stop>
            <stop stop-color="#40AD3C" offset="96.9527264%"></stop>
        </linearGradient>
        <path d="M34.32,30.46 C33.8483091,31.5776375 33.1018754,32.5579766 32.15,33.31 C31.4395831,33.8717846 30.6283732,34.2926634 29.76,34.55 C28.4168506,34.8848338 27.0333677,35.0295778 25.65,34.98 L10.35,34.98 C8.96663231,35.0295778 7.58314944,34.8848338 6.24,34.55 C4.18040597,33.9351257 2.50391754,32.4310551 1.67,30.45 C1.15424207,28.9011671 0.92714626,27.2708225 1,25.64 L1,25.64 L1,10.35 L1,10.35 C0.928446703,8.71519287 1.15896769,7.08120584 1.68,5.53 C2.51391754,3.54894486 4.19040597,2.04487427 6.25,1.43 C7.58991404,1.09609642 8.96996547,0.951359321 10.35,1 L25.65,1 C27.0333677,0.950422237 28.4168506,1.09516619 29.76,1.43 C31.819594,2.04487427 33.4960825,3.54894486 34.33,5.53 C34.8469737,7.08199697 35.0740851,8.7158434 35,10.35 L35,25.65 C35.0703189,27.281472 34.8398138,28.9119563 34.32,30.46 Z" id="path-3"></path>
    </defs>
    <g id="Page-1" stroke="none" stroke-width="1" fill="none" fill-rule="evenodd">
        <g id="Desktop-HD-Copy-9" transform="translate(-54.000000, -672.000000)" fill-rule="nonzero">
            <g id="Group-8" transform="translate(53.000000, 477.000000)">
                <g id="Group-4" transform="translate(0.000000, 43.000000)">
                    <g id="rss-12bef3a7ea150b9ed029284c68f0fa6d" transform="translate(0.000000, 151.000000)">
                        <g id="_Tracé_">
                            <use fill="url(#linearGradient-1)" fill-rule="evenodd" xlink:href="#path-3"></use>
                            <use fill="url(#linearGradient-2)" fill-rule="evenodd" xlink:href="#path-3"></use>
                        </g>
                        <path d="M10.43,22.81 C8.91805382,22.8155181 7.69633272,24.0446906 7.7000081,25.5566423 C7.70368347,27.0685941 8.93136603,28.2918124 10.4433212,28.2899797 C11.9552763,28.2881471 13.1799899,27.0619563 13.18,25.55 C13.1744913,24.0351236 11.9448864,22.80999 10.43,22.81 L10.43,22.81 Z M7.69,14.69 L7.69,18.69 C10.2519917,18.6926508 12.7079977,19.712941 14.5177241,21.526418 C16.3274504,23.3398951 17.3426535,25.7980083 17.34,28.36 L21.34,28.36 C21.3479727,24.7355185 19.9130523,21.2569003 17.3520276,18.6921231 C14.7910029,16.127346 11.3144892,14.687334 7.69,14.69 L7.69,14.69 Z M7.69,7.69 L7.69,11.69 C16.8686571,11.7064178 24.3115182,19.1314089 24.35,28.31 L28.35,28.31 C28.3334485,16.9115146 19.0884975,7.67998798 7.69,7.68 L7.69,7.69 Z" id="Shape" fill="#FFFFFF"></path>
                    </g>
                </g>
            </g>
        </g>
    </g>
</svg>